<mxfile host="app.diagrams.net" modified="2023-12-16T15:58:30.527Z" agent="Mozilla/5.0 (Windows NT 10.0; Win64; x64; rv:120.0) Gecko/20100101 Firefox/120.0" version="22.1.11" etag="LKVF8o6ypiR5O8nf89YW" type="github">
  <diagram name="Страница — 1" id="joONWam06UAvbOn0pG4i">
    <mxGraphModel>
      <root>
        <mxCell id="0" />
        <mxCell id="1" parent="0" />
      </root>
    </mxGraphModel>
  </diagram>
</mxfile>
